<mxfile host="app.diagrams.net" agent="Mozilla/5.0 (Windows NT 10.0; Win64; x64) AppleWebKit/537.36 (KHTML, like Gecko) Chrome/139.0.0.0 Safari/537.36" version="28.0.7">
  <diagram name="第 1 页" id="pDh1MaaMRWO0j-szB_NV">
    <mxGraphModel dx="815" dy="29" grid="1" gridSize="10" guides="1" tooltips="1" connect="1" arrows="1" fold="1" page="0" pageScale="1" pageWidth="827" pageHeight="1169" math="0" shadow="0">
      <root>
        <mxCell id="0" />
        <mxCell id="1" parent="0" />
        <mxCell id="ddrYuGQ9klJX5eJ3XwgI-3" style="edgeStyle=orthogonalEdgeStyle;rounded=0;orthogonalLoop=1;jettySize=auto;html=1;exitX=0.5;exitY=1;exitDx=0;exitDy=0;entryX=0.5;entryY=0;entryDx=0;entryDy=0;fontSize=10;labelBackgroundColor=none;strokeColor=#A8201A;fontColor=default;" edge="1" parent="1" source="ddrYuGQ9klJX5eJ3XwgI-1" target="ddrYuGQ9klJX5eJ3XwgI-2">
          <mxGeometry relative="1" as="geometry" />
        </mxCell>
        <mxCell id="ddrYuGQ9klJX5eJ3XwgI-1" value="开始" style="rounded=1;whiteSpace=wrap;html=1;fontSize=10;labelBackgroundColor=none;fillColor=#FAE5C7;strokeColor=#0F8B8D;fontColor=#143642;" vertex="1" parent="1">
          <mxGeometry x="90" y="480" width="80" height="30" as="geometry" />
        </mxCell>
        <mxCell id="ddrYuGQ9klJX5eJ3XwgI-5" style="edgeStyle=orthogonalEdgeStyle;rounded=0;orthogonalLoop=1;jettySize=auto;html=1;exitX=0.5;exitY=1;exitDx=0;exitDy=0;entryX=0.5;entryY=0;entryDx=0;entryDy=0;labelBackgroundColor=none;strokeColor=#A8201A;fontColor=default;" edge="1" parent="1" source="ddrYuGQ9klJX5eJ3XwgI-2" target="ddrYuGQ9klJX5eJ3XwgI-4">
          <mxGeometry relative="1" as="geometry" />
        </mxCell>
        <mxCell id="ddrYuGQ9klJX5eJ3XwgI-14" value="yes" style="edgeLabel;html=1;align=center;verticalAlign=middle;resizable=0;points=[];" vertex="1" connectable="0" parent="ddrYuGQ9klJX5eJ3XwgI-5">
          <mxGeometry x="-0.1257" y="-2" relative="1" as="geometry">
            <mxPoint as="offset" />
          </mxGeometry>
        </mxCell>
        <mxCell id="ddrYuGQ9klJX5eJ3XwgI-11" style="edgeStyle=orthogonalEdgeStyle;rounded=0;orthogonalLoop=1;jettySize=auto;html=1;exitX=0;exitY=0.5;exitDx=0;exitDy=0;entryX=0;entryY=0.5;entryDx=0;entryDy=0;labelBackgroundColor=none;strokeColor=#A8201A;fontColor=default;" edge="1" parent="1" source="ddrYuGQ9klJX5eJ3XwgI-2" target="ddrYuGQ9klJX5eJ3XwgI-9">
          <mxGeometry relative="1" as="geometry">
            <Array as="points">
              <mxPoint x="40" y="575" />
              <mxPoint x="40" y="815" />
            </Array>
          </mxGeometry>
        </mxCell>
        <mxCell id="ddrYuGQ9klJX5eJ3XwgI-13" value="no" style="edgeLabel;html=1;align=center;verticalAlign=middle;resizable=0;points=[];" vertex="1" connectable="0" parent="ddrYuGQ9klJX5eJ3XwgI-11">
          <mxGeometry x="0.0625" y="-1" relative="1" as="geometry">
            <mxPoint as="offset" />
          </mxGeometry>
        </mxCell>
        <mxCell id="ddrYuGQ9klJX5eJ3XwgI-2" value="用户存在？" style="rhombus;whiteSpace=wrap;html=1;fontSize=10;labelBackgroundColor=none;fillColor=#FAE5C7;strokeColor=#0F8B8D;fontColor=#143642;" vertex="1" parent="1">
          <mxGeometry x="70" y="550" width="120" height="50" as="geometry" />
        </mxCell>
        <mxCell id="ddrYuGQ9klJX5eJ3XwgI-8" style="edgeStyle=orthogonalEdgeStyle;rounded=0;orthogonalLoop=1;jettySize=auto;html=1;exitX=0.5;exitY=1;exitDx=0;exitDy=0;entryX=0.5;entryY=0;entryDx=0;entryDy=0;labelBackgroundColor=none;strokeColor=#A8201A;fontColor=default;" edge="1" parent="1" source="ddrYuGQ9klJX5eJ3XwgI-4" target="ddrYuGQ9klJX5eJ3XwgI-7">
          <mxGeometry relative="1" as="geometry" />
        </mxCell>
        <mxCell id="ddrYuGQ9klJX5eJ3XwgI-4" value="生成Token缓存在Redis中" style="rounded=0;whiteSpace=wrap;html=1;fontSize=10;labelBackgroundColor=none;fillColor=#FAE5C7;strokeColor=#0F8B8D;fontColor=#143642;" vertex="1" parent="1">
          <mxGeometry x="85" y="650" width="90" height="30" as="geometry" />
        </mxCell>
        <mxCell id="ddrYuGQ9klJX5eJ3XwgI-10" style="edgeStyle=orthogonalEdgeStyle;rounded=0;orthogonalLoop=1;jettySize=auto;html=1;exitX=0.5;exitY=1;exitDx=0;exitDy=0;entryX=0.5;entryY=0;entryDx=0;entryDy=0;labelBackgroundColor=none;strokeColor=#A8201A;fontColor=default;" edge="1" parent="1" source="ddrYuGQ9klJX5eJ3XwgI-7" target="ddrYuGQ9klJX5eJ3XwgI-9">
          <mxGeometry relative="1" as="geometry" />
        </mxCell>
        <mxCell id="ddrYuGQ9klJX5eJ3XwgI-7" value="向响应头中写入Cookie" style="rounded=0;whiteSpace=wrap;html=1;fontSize=10;labelBackgroundColor=none;fillColor=#FAE5C7;strokeColor=#0F8B8D;fontColor=#143642;" vertex="1" parent="1">
          <mxGeometry x="85" y="730" width="90" height="30" as="geometry" />
        </mxCell>
        <mxCell id="ddrYuGQ9klJX5eJ3XwgI-9" value="结束" style="rounded=1;whiteSpace=wrap;html=1;fontSize=10;labelBackgroundColor=none;fillColor=#FAE5C7;strokeColor=#0F8B8D;fontColor=#143642;" vertex="1" parent="1">
          <mxGeometry x="90" y="800" width="80" height="30" as="geometry" />
        </mxCell>
      </root>
    </mxGraphModel>
  </diagram>
</mxfile>
